<svg viewBox="0 0 283 90" fill="none" xmlns="http://www.w3.org/2000/svg">
<path d="M70.728 55L75.6783 25.1818H81.9826L79.9442 37.4847H92.7422L94.7805 25.1818H101.07L96.12 55H89.8303L91.8686 42.6825H79.0707L77.0323 55H70.728ZM101.728 55L106.678 25.1818H126.77L125.897 30.3796H112.109L110.944 37.4847H123.698L122.825 42.6825H110.071L108.906 49.8022H122.752L121.878 55H101.728ZM127.242 55L132.193 25.1818H138.497L134.42 49.8022H147.204L146.33 55H127.242ZM162.17 25.1818L157.219 55H150.915L155.865 25.1818H162.17ZM162.816 55L167.767 25.1818H179.531C181.783 25.1818 183.637 25.5798 185.093 26.3757C186.558 27.1716 187.587 28.3024 188.179 29.7681C188.781 31.2241 188.922 32.9421 188.601 34.9222C188.271 36.9023 187.558 38.601 186.461 40.0181C185.374 41.4353 183.957 42.5272 182.21 43.294C180.472 44.0511 178.458 44.4297 176.167 44.4297H168.291L169.164 39.3629H176.007C177.211 39.3629 178.24 39.1979 179.094 38.8679C179.948 38.5379 180.623 38.0429 181.118 37.3828C181.622 36.7228 181.952 35.9026 182.108 34.9222C182.273 33.9225 182.215 33.0877 181.933 32.418C181.652 31.7385 181.142 31.2241 180.404 30.8746C179.667 30.5155 178.696 30.3359 177.492 30.3359H173.241L169.121 55H162.816ZM181.161 41.4304L186.33 55H179.371L174.362 41.4304H181.161ZM190.373 55L195.323 25.1818H215.415L214.542 30.3796H200.754L199.589 37.4847H212.343L211.47 42.6825H198.715L197.551 49.8022H211.397L210.523 55H190.373ZM218.828 30.3796L219.702 25.1818H244.191L243.318 30.3796H234.189L230.112 55H223.88L227.957 30.3796H218.828ZM246.625 30.3796L247.499 25.1818H271.988L271.114 30.3796H261.985L257.909 55H251.677L255.754 30.3796H246.625ZM282.735 25.1818L277.785 55H271.481L276.431 25.1818H282.735Z" fill="white"/>
<path d="M75.8686 80.3828H73.6911C73.6513 80.1011 73.5701 79.8509 73.4474 79.6321C73.3248 79.41 73.1674 79.2211 72.9751 79.0653C72.7829 78.9096 72.5608 78.7902 72.3089 78.7074C72.0604 78.6245 71.7902 78.5831 71.4986 78.5831C70.9716 78.5831 70.5125 78.714 70.1214 78.9759C69.7304 79.2344 69.4271 79.6122 69.2116 80.1094C68.9962 80.6032 68.8885 81.2031 68.8885 81.9091C68.8885 82.6349 68.9962 83.2448 69.2116 83.7386C69.4304 84.2325 69.7353 84.6054 70.1264 84.8572C70.5175 85.1091 70.9699 85.2351 71.4837 85.2351C71.772 85.2351 72.0388 85.197 72.2841 85.1207C72.5327 85.0445 72.7531 84.9335 72.9453 84.7876C73.1375 84.6385 73.2966 84.4579 73.4226 84.2457C73.5518 84.0336 73.6413 83.7917 73.6911 83.5199L75.8686 83.5298C75.8123 83.9972 75.6714 84.4479 75.446 84.8821C75.224 85.313 74.924 85.6991 74.5462 86.0405C74.1716 86.3786 73.7242 86.647 73.2038 86.8459C72.6868 87.0414 72.1018 87.1392 71.4489 87.1392C70.5407 87.1392 69.7287 86.9337 69.0128 86.5227C68.3002 86.1117 67.7367 85.5168 67.3224 84.7379C66.9115 83.959 66.706 83.0161 66.706 81.9091C66.706 80.7988 66.9148 79.8542 67.3324 79.0753C67.75 78.2964 68.3168 77.7031 69.0327 77.2955C69.7486 76.8845 70.554 76.679 71.4489 76.679C72.0388 76.679 72.5857 76.7618 73.0895 76.9276C73.5966 77.0933 74.0457 77.3352 74.4368 77.6534C74.8279 77.9683 75.1461 78.3544 75.3913 78.8118C75.6399 79.2692 75.799 79.7929 75.8686 80.3828ZM81.2428 87.1491C80.4705 87.1491 79.8027 86.9851 79.2392 86.657C78.6791 86.3255 78.2466 85.8648 77.9417 85.2749C77.6367 84.6816 77.4843 83.9938 77.4843 83.2116C77.4843 82.4228 77.6367 81.7334 77.9417 81.1435C78.2466 80.5502 78.6791 80.0895 79.2392 79.7614C79.8027 79.4299 80.4705 79.2642 81.2428 79.2642C82.0151 79.2642 82.6812 79.4299 83.2414 79.7614C83.8048 80.0895 84.239 80.5502 84.5439 81.1435C84.8489 81.7334 85.0013 82.4228 85.0013 83.2116C85.0013 83.9938 84.8489 84.6816 84.5439 85.2749C84.239 85.8648 83.8048 86.3255 83.2414 86.657C82.6812 86.9851 82.0151 87.1491 81.2428 87.1491ZM81.2527 85.5085C81.6041 85.5085 81.8974 85.4091 82.1327 85.2102C82.368 85.008 82.5454 84.733 82.6647 84.3849C82.7873 84.0369 82.8486 83.6409 82.8486 83.1967C82.8486 82.7526 82.7873 82.3565 82.6647 82.0085C82.5454 81.6605 82.368 81.3854 82.1327 81.1832C81.8974 80.9811 81.6041 80.88 81.2527 80.88C80.8981 80.88 80.5998 80.9811 80.3579 81.1832C80.1192 81.3854 79.9386 81.6605 79.816 82.0085C79.6966 82.3565 79.637 82.7526 79.637 83.1967C79.637 83.6409 79.6966 84.0369 79.816 84.3849C79.9386 84.733 80.1192 85.008 80.3579 85.2102C80.5998 85.4091 80.8981 85.5085 81.2527 85.5085ZM88.9163 82.5852V87H86.7985V79.3636H88.8169V80.7109H88.9064C89.0754 80.2668 89.3588 79.9155 89.7565 79.657C90.1543 79.3951 90.6365 79.2642 91.2033 79.2642C91.7336 79.2642 92.1959 79.3802 92.5904 79.6122C92.9848 79.8442 93.2913 80.1757 93.5101 80.6065C93.7288 81.0341 93.8382 81.5445 93.8382 82.1378V87H91.7203V82.5156C91.7236 82.0483 91.6043 81.6837 91.3624 81.4219C91.1204 81.1567 90.7873 81.0241 90.3631 81.0241C90.078 81.0241 89.8262 81.0855 89.6074 81.2081C89.392 81.3307 89.2229 81.5097 89.1003 81.745C88.981 81.977 88.9197 82.2571 88.9163 82.5852ZM99.9892 79.3636V80.9545H95.3905V79.3636H99.9892ZM96.4345 77.5341H98.5524V84.6534C98.5524 84.849 98.5823 85.0014 98.6419 85.1108C98.7016 85.2169 98.7844 85.2914 98.8905 85.3345C98.9999 85.3776 99.1258 85.3991 99.2683 85.3991C99.3678 85.3991 99.4672 85.3909 99.5666 85.3743C99.6661 85.3544 99.7423 85.3395 99.7953 85.3295L100.128 86.9055C100.022 86.9387 99.8732 86.9768 99.681 87.0199C99.4888 87.0663 99.2551 87.0945 98.98 87.1044C98.4696 87.1243 98.0221 87.0563 97.6377 86.9006C97.2565 86.7448 96.9599 86.5028 96.7477 86.1747C96.5356 85.8466 96.4312 85.4323 96.4345 84.9318V77.5341ZM101.789 87V79.3636H103.842V80.696H103.922C104.061 80.2221 104.295 79.8641 104.623 79.6222C104.951 79.3769 105.329 79.2543 105.756 79.2543C105.862 79.2543 105.977 79.2609 106.099 79.2741C106.222 79.2874 106.33 79.3056 106.422 79.3288V81.2081C106.323 81.1783 106.185 81.1518 106.01 81.1286C105.834 81.1054 105.673 81.0938 105.527 81.0938C105.216 81.0938 104.938 81.1617 104.692 81.2976C104.45 81.4302 104.258 81.6158 104.116 81.8544C103.976 82.093 103.907 82.3681 103.907 82.6797V87H101.789ZM109.896 87.1442C109.409 87.1442 108.975 87.0597 108.594 86.8906C108.212 86.7183 107.911 86.4647 107.689 86.13C107.47 85.7919 107.361 85.371 107.361 84.8672C107.361 84.4429 107.439 84.0866 107.594 83.7983C107.75 83.5099 107.962 83.2779 108.231 83.1023C108.499 82.9266 108.804 82.794 109.145 82.7045C109.49 82.6151 109.851 82.5521 110.229 82.5156C110.673 82.4692 111.031 82.4261 111.303 82.3864C111.575 82.3433 111.772 82.2803 111.895 82.1974C112.017 82.1146 112.079 81.992 112.079 81.8295V81.7997C112.079 81.4848 111.979 81.2412 111.78 81.0689C111.585 80.8965 111.306 80.8104 110.945 80.8104C110.564 80.8104 110.261 80.8949 110.035 81.0639C109.81 81.2296 109.661 81.4384 109.588 81.6903L107.629 81.5312C107.729 81.0672 107.924 80.6662 108.216 80.3281C108.507 79.9867 108.884 79.7249 109.344 79.5426C109.808 79.357 110.345 79.2642 110.955 79.2642C111.379 79.2642 111.785 79.3139 112.173 79.4134C112.564 79.5128 112.911 79.6669 113.212 79.8757C113.517 80.0845 113.757 80.353 113.933 80.6811C114.109 81.0059 114.197 81.3954 114.197 81.8494V87H112.188V85.9411H112.128C112.006 86.1797 111.842 86.3902 111.636 86.5724C111.431 86.7514 111.184 86.8923 110.895 86.995C110.607 87.0945 110.274 87.1442 109.896 87.1442ZM110.503 85.6825C110.814 85.6825 111.089 85.6212 111.328 85.4986C111.567 85.3726 111.754 85.2036 111.89 84.9915C112.026 84.7794 112.094 84.5391 112.094 84.2706V83.4602C112.027 83.5033 111.936 83.5431 111.82 83.5795C111.707 83.6127 111.58 83.6442 111.437 83.674C111.295 83.7005 111.152 83.7254 111.01 83.7486C110.867 83.7685 110.738 83.7867 110.622 83.8033C110.373 83.8397 110.156 83.8977 109.971 83.9773C109.785 84.0568 109.641 84.1645 109.538 84.3004C109.435 84.433 109.384 84.5987 109.384 84.7976C109.384 85.0859 109.488 85.3063 109.697 85.4588C109.909 85.608 110.178 85.6825 110.503 85.6825ZM120.321 79.3636V80.9545H115.723V79.3636H120.321ZM116.767 77.5341H118.885V84.6534C118.885 84.849 118.915 85.0014 118.974 85.1108C119.034 85.2169 119.117 85.2914 119.223 85.3345C119.332 85.3776 119.458 85.3991 119.601 85.3991C119.7 85.3991 119.799 85.3909 119.899 85.3743C119.998 85.3544 120.075 85.3395 120.128 85.3295L120.461 86.9055C120.355 86.9387 120.205 86.9768 120.013 87.0199C119.821 87.0663 119.587 87.0945 119.312 87.1044C118.802 87.1243 118.354 87.0563 117.97 86.9006C117.589 86.7448 117.292 86.5028 117.08 86.1747C116.868 85.8466 116.763 85.4323 116.767 84.9318V77.5341ZM122.121 87V79.3636H124.239V87H122.121ZM123.185 78.3793C122.87 78.3793 122.6 78.2749 122.375 78.0661C122.153 77.8539 122.042 77.6004 122.042 77.3054C122.042 77.0137 122.153 76.7635 122.375 76.5547C122.6 76.3426 122.87 76.2365 123.185 76.2365C123.5 76.2365 123.768 76.3426 123.99 76.5547C124.216 76.7635 124.328 77.0137 124.328 77.3054C124.328 77.6004 124.216 77.8539 123.99 78.0661C123.768 78.2749 123.5 78.3793 123.185 78.3793ZM132.709 81.5412L130.77 81.6605C130.737 81.4948 130.666 81.3456 130.557 81.2131C130.447 81.0772 130.303 80.9695 130.124 80.8899C129.948 80.8071 129.738 80.7656 129.493 80.7656C129.165 80.7656 128.888 80.8352 128.662 80.9744C128.437 81.1103 128.324 81.2926 128.324 81.5213C128.324 81.7036 128.397 81.8577 128.543 81.9837C128.689 82.1096 128.939 82.2107 129.294 82.2869L130.676 82.5653C131.418 82.7178 131.972 82.9631 132.336 83.3011C132.701 83.6392 132.883 84.0833 132.883 84.6335C132.883 85.134 132.736 85.5732 132.441 85.951C132.149 86.3288 131.748 86.6238 131.238 86.8359C130.731 87.0447 130.146 87.1491 129.483 87.1491C128.472 87.1491 127.666 86.9387 127.066 86.5178C126.47 86.0935 126.12 85.5168 126.017 84.7876L128.101 84.6783C128.164 84.9865 128.316 85.2218 128.558 85.3842C128.8 85.5433 129.11 85.6229 129.488 85.6229C129.859 85.6229 130.157 85.5516 130.383 85.4091C130.611 85.2633 130.727 85.076 130.731 84.8473C130.727 84.6551 130.646 84.4976 130.487 84.375C130.328 84.2491 130.083 84.1529 129.751 84.0866L128.429 83.8232C127.683 83.674 127.128 83.4155 126.763 83.0476C126.402 82.6797 126.221 82.2107 126.221 81.6406C126.221 81.1501 126.354 80.7275 126.619 80.3729C126.888 80.0182 127.264 79.7448 127.748 79.5526C128.235 79.3603 128.805 79.2642 129.458 79.2642C130.422 79.2642 131.181 79.468 131.735 79.8757C132.292 80.2834 132.616 80.8385 132.709 81.5412ZM138.699 79.3636V80.9545H134.1V79.3636H138.699ZM135.144 77.5341H137.262V84.6534C137.262 84.849 137.292 85.0014 137.351 85.1108C137.411 85.2169 137.494 85.2914 137.6 85.3345C137.709 85.3776 137.835 85.3991 137.978 85.3991C138.077 85.3991 138.177 85.3909 138.276 85.3743C138.376 85.3544 138.452 85.3395 138.505 85.3295L138.838 86.9055C138.732 86.9387 138.583 86.9768 138.39 87.0199C138.198 87.0663 137.965 87.0945 137.689 87.1044C137.179 87.1243 136.732 87.0563 136.347 86.9006C135.966 86.7448 135.669 86.5028 135.457 86.1747C135.245 85.8466 135.141 85.4323 135.144 84.9318V77.5341ZM142.676 87.1442C142.189 87.1442 141.754 87.0597 141.373 86.8906C140.992 86.7183 140.691 86.4647 140.468 86.13C140.25 85.7919 140.14 85.371 140.14 84.8672C140.14 84.4429 140.218 84.0866 140.374 83.7983C140.53 83.5099 140.742 83.2779 141.01 83.1023C141.279 82.9266 141.584 82.794 141.925 82.7045C142.27 82.6151 142.631 82.5521 143.009 82.5156C143.453 82.4692 143.811 82.4261 144.083 82.3864C144.355 82.3433 144.552 82.2803 144.674 82.1974C144.797 82.1146 144.858 81.992 144.858 81.8295V81.7997C144.858 81.4848 144.759 81.2412 144.56 81.0689C144.365 80.8965 144.086 80.8104 143.725 80.8104C143.344 80.8104 143.04 80.8949 142.815 81.0639C142.59 81.2296 142.441 81.4384 142.368 81.6903L140.409 81.5312C140.508 81.0672 140.704 80.6662 140.995 80.3281C141.287 79.9867 141.663 79.7249 142.124 79.5426C142.588 79.357 143.125 79.2642 143.735 79.2642C144.159 79.2642 144.565 79.3139 144.953 79.4134C145.344 79.5128 145.69 79.6669 145.992 79.8757C146.297 80.0845 146.537 80.353 146.713 80.6811C146.888 81.0059 146.976 81.3954 146.976 81.8494V87H144.968V85.9411H144.908C144.785 86.1797 144.621 86.3902 144.416 86.5724C144.21 86.7514 143.963 86.8923 143.675 86.995C143.387 87.0945 143.054 87.1442 142.676 87.1442ZM143.282 85.6825C143.594 85.6825 143.869 85.6212 144.108 85.4986C144.346 85.3726 144.534 85.2036 144.669 84.9915C144.805 84.7794 144.873 84.5391 144.873 84.2706V83.4602C144.807 83.5033 144.716 83.5431 144.6 83.5795C144.487 83.6127 144.36 83.6442 144.217 83.674C144.075 83.7005 143.932 83.7254 143.789 83.7486C143.647 83.7685 143.518 83.7867 143.402 83.8033C143.153 83.8397 142.936 83.8977 142.75 83.9773C142.565 84.0568 142.421 84.1645 142.318 84.3004C142.215 84.433 142.164 84.5987 142.164 84.7976C142.164 85.0859 142.268 85.3063 142.477 85.4588C142.689 85.608 142.958 85.6825 143.282 85.6825ZM155.393 81.5412L153.454 81.6605C153.421 81.4948 153.35 81.3456 153.24 81.2131C153.131 81.0772 152.987 80.9695 152.808 80.8899C152.632 80.8071 152.422 80.7656 152.176 80.7656C151.848 80.7656 151.572 80.8352 151.346 80.9744C151.121 81.1103 151.008 81.2926 151.008 81.5213C151.008 81.7036 151.081 81.8577 151.227 81.9837C151.373 82.1096 151.623 82.2107 151.978 82.2869L153.36 82.5653C154.102 82.7178 154.656 82.9631 155.02 83.3011C155.385 83.6392 155.567 84.0833 155.567 84.6335C155.567 85.134 155.42 85.5732 155.125 85.951C154.833 86.3288 154.432 86.6238 153.921 86.8359C153.414 87.0447 152.829 87.1491 152.167 87.1491C151.156 87.1491 150.35 86.9387 149.75 86.5178C149.154 86.0935 148.804 85.5168 148.701 84.7876L150.784 84.6783C150.847 84.9865 151 85.2218 151.242 85.3842C151.484 85.5433 151.794 85.6229 152.171 85.6229C152.543 85.6229 152.841 85.5516 153.066 85.4091C153.295 85.2633 153.411 85.076 153.414 84.8473C153.411 84.6551 153.33 84.4976 153.171 84.375C153.012 84.2491 152.766 84.1529 152.435 84.0866L151.113 83.8232C150.367 83.674 149.812 83.4155 149.447 83.0476C149.086 82.6797 148.905 82.2107 148.905 81.6406C148.905 81.1501 149.038 80.7275 149.303 80.3729C149.571 80.0182 149.948 79.7448 150.431 79.5526C150.919 79.3603 151.489 79.2642 152.142 79.2642C153.106 79.2642 153.865 79.468 154.419 79.8757C154.975 80.2834 155.3 80.8385 155.393 81.5412ZM167.772 80.1094C167.703 79.8674 167.605 79.6536 167.479 79.468C167.353 79.2791 167.199 79.12 167.016 78.9908C166.837 78.8582 166.632 78.7571 166.4 78.6875C166.171 78.6179 165.918 78.5831 165.639 78.5831C165.119 78.5831 164.662 78.7124 164.267 78.9709C163.876 79.2294 163.571 79.6056 163.352 80.0994C163.134 80.59 163.024 81.1899 163.024 81.8991C163.024 82.6084 163.132 83.2116 163.347 83.7088C163.563 84.206 163.868 84.5855 164.262 84.8473C164.657 85.1058 165.122 85.2351 165.659 85.2351C166.146 85.2351 166.562 85.1489 166.907 84.9766C167.255 84.8009 167.52 84.554 167.703 84.2358C167.888 83.9176 167.981 83.5414 167.981 83.1072L168.418 83.1719H165.793V81.5511H170.054V82.8338C170.054 83.7287 169.865 84.4976 169.487 85.1406C169.11 85.7803 168.589 86.2741 167.926 86.6222C167.263 86.9669 166.504 87.1392 165.649 87.1392C164.695 87.1392 163.856 86.9287 163.134 86.5078C162.411 86.0836 161.848 85.482 161.443 84.7031C161.042 83.9209 160.842 82.9929 160.842 81.919C160.842 81.0937 160.961 80.358 161.2 79.7116C161.442 79.062 161.78 78.5118 162.214 78.0611C162.648 77.6103 163.154 77.2673 163.73 77.032C164.307 76.7966 164.932 76.679 165.605 76.679C166.181 76.679 166.718 76.7635 167.215 76.9325C167.712 77.0982 168.153 77.3336 168.538 77.6385C168.926 77.9434 169.242 78.3063 169.487 78.7273C169.733 79.1449 169.89 79.6056 169.96 80.1094H167.772ZM175.531 87.1491C174.746 87.1491 174.07 86.9901 173.503 86.6719C172.94 86.3504 172.505 85.8963 172.2 85.3097C171.896 84.7197 171.743 84.022 171.743 83.2166C171.743 82.4311 171.896 81.7417 172.2 81.1484C172.505 80.5552 172.935 80.0928 173.488 79.7614C174.045 79.4299 174.698 79.2642 175.447 79.2642C175.951 79.2642 176.42 79.3454 176.854 79.5078C177.291 79.6669 177.673 79.9072 177.997 80.2287C178.325 80.5502 178.581 80.9545 178.763 81.4418C178.945 81.9257 179.036 82.4924 179.036 83.142V83.7237H172.588V82.4112H177.043C177.043 82.1063 176.977 81.8362 176.844 81.6009C176.711 81.3655 176.527 81.1816 176.292 81.049C176.06 80.9131 175.79 80.8452 175.482 80.8452C175.16 80.8452 174.875 80.9197 174.627 81.0689C174.381 81.2147 174.189 81.4119 174.05 81.6605C173.911 81.9058 173.839 82.1792 173.836 82.4808V83.7287C173.836 84.1065 173.906 84.433 174.045 84.7081C174.187 84.9832 174.388 85.1953 174.647 85.3445C174.905 85.4936 175.212 85.5682 175.566 85.5682C175.802 85.5682 176.017 85.535 176.213 85.4688C176.408 85.4025 176.575 85.303 176.715 85.1705C176.854 85.0379 176.96 84.8755 177.033 84.6832L178.992 84.8125C178.892 85.2831 178.688 85.6941 178.38 86.0455C178.075 86.3935 177.681 86.6652 177.197 86.8608C176.716 87.053 176.161 87.1491 175.531 87.1491ZM182.956 82.5852V87H180.839V79.3636H182.857V80.7109H182.946C183.116 80.2668 183.399 79.9155 183.797 79.657C184.194 79.3951 184.677 79.2642 185.243 79.2642C185.774 79.2642 186.236 79.3802 186.63 79.6122C187.025 79.8442 187.331 80.1757 187.55 80.6065C187.769 81.0341 187.878 81.5445 187.878 82.1378V87H185.76V82.5156C185.764 82.0483 185.644 81.6837 185.402 81.4219C185.161 81.1567 184.827 81.0241 184.403 81.0241C184.118 81.0241 183.866 81.0855 183.647 81.2081C183.432 81.3307 183.263 81.5097 183.14 81.745C183.021 81.977 182.96 82.2571 182.956 82.5852ZM193.448 87.1491C192.662 87.1491 191.986 86.9901 191.419 86.6719C190.856 86.3504 190.422 85.8963 190.117 85.3097C189.812 84.7197 189.659 84.022 189.659 83.2166C189.659 82.4311 189.812 81.7417 190.117 81.1484C190.422 80.5552 190.851 80.0928 191.404 79.7614C191.961 79.4299 192.614 79.2642 193.363 79.2642C193.867 79.2642 194.336 79.3454 194.77 79.5078C195.208 79.6669 195.589 79.9072 195.914 80.2287C196.242 80.5502 196.497 80.9545 196.679 81.4418C196.861 81.9257 196.953 82.4924 196.953 83.142V83.7237H190.504V82.4112H194.959C194.959 82.1063 194.893 81.8362 194.76 81.6009C194.628 81.3655 194.444 81.1816 194.208 81.049C193.976 80.9131 193.706 80.8452 193.398 80.8452C193.076 80.8452 192.791 80.9197 192.543 81.0689C192.298 81.2147 192.105 81.4119 191.966 81.6605C191.827 81.9058 191.756 82.1792 191.752 82.4808V83.7287C191.752 84.1065 191.822 84.433 191.961 84.7081C192.104 84.9832 192.304 85.1953 192.563 85.3445C192.821 85.4936 193.128 85.5682 193.482 85.5682C193.718 85.5682 193.933 85.535 194.129 85.4688C194.324 85.4025 194.492 85.303 194.631 85.1705C194.77 85.0379 194.876 84.8755 194.949 84.6832L196.908 84.8125C196.808 85.2831 196.605 85.6941 196.296 86.0455C195.991 86.3935 195.597 86.6652 195.113 86.8608C194.633 87.053 194.077 87.1491 193.448 87.1491ZM198.755 87V79.3636H200.808V80.696H200.888C201.027 80.2221 201.26 79.8641 201.589 79.6222C201.917 79.3769 202.294 79.2543 202.722 79.2543C202.828 79.2543 202.942 79.2609 203.065 79.2741C203.188 79.2874 203.295 79.3056 203.388 79.3288V81.2081C203.289 81.1783 203.151 81.1518 202.976 81.1286C202.8 81.1054 202.639 81.0938 202.493 81.0938C202.182 81.0938 201.903 81.1617 201.658 81.2976C201.416 81.4302 201.224 81.6158 201.081 81.8544C200.942 82.093 200.873 82.3681 200.873 82.6797V87H198.755ZM206.862 87.1442C206.375 87.1442 205.941 87.0597 205.559 86.8906C205.178 86.7183 204.877 86.4647 204.655 86.13C204.436 85.7919 204.327 85.371 204.327 84.8672C204.327 84.4429 204.404 84.0866 204.56 83.7983C204.716 83.5099 204.928 83.2779 205.197 83.1023C205.465 82.9266 205.77 82.794 206.111 82.7045C206.456 82.6151 206.817 82.5521 207.195 82.5156C207.639 82.4692 207.997 82.4261 208.269 82.3864C208.541 82.3433 208.738 82.2803 208.861 82.1974C208.983 82.1146 209.045 81.992 209.045 81.8295V81.7997C209.045 81.4848 208.945 81.2412 208.746 81.0689C208.551 80.8965 208.272 80.8104 207.911 80.8104C207.53 80.8104 207.227 80.8949 207.001 81.0639C206.776 81.2296 206.627 81.4384 206.554 81.6903L204.595 81.5312C204.694 81.0672 204.89 80.6662 205.182 80.3281C205.473 79.9867 205.849 79.7249 206.31 79.5426C206.774 79.357 207.311 79.2642 207.921 79.2642C208.345 79.2642 208.751 79.3139 209.139 79.4134C209.53 79.5128 209.876 79.6669 210.178 79.8757C210.483 80.0845 210.723 80.353 210.899 80.6811C211.075 81.0059 211.162 81.3954 211.162 81.8494V87H209.154V85.9411H209.094C208.972 86.1797 208.808 86.3902 208.602 86.5724C208.397 86.7514 208.15 86.8923 207.861 86.995C207.573 87.0945 207.24 87.1442 206.862 87.1442ZM207.469 85.6825C207.78 85.6825 208.055 85.6212 208.294 85.4986C208.532 85.3726 208.72 85.2036 208.856 84.9915C208.992 84.7794 209.059 84.5391 209.059 84.2706V83.4602C208.993 83.5033 208.902 83.5431 208.786 83.5795C208.673 83.6127 208.546 83.6442 208.403 83.674C208.261 83.7005 208.118 83.7254 207.976 83.7486C207.833 83.7685 207.704 83.7867 207.588 83.8033C207.339 83.8397 207.122 83.8977 206.937 83.9773C206.751 84.0568 206.607 84.1645 206.504 84.3004C206.401 84.433 206.35 84.5987 206.35 84.7976C206.35 85.0859 206.454 85.3063 206.663 85.4588C206.875 85.608 207.144 85.6825 207.469 85.6825ZM215.343 76.8182V87H213.226V76.8182H215.343ZM220.94 87.1491C220.155 87.1491 219.478 86.9901 218.912 86.6719C218.348 86.3504 217.914 85.8963 217.609 85.3097C217.304 84.7197 217.152 84.022 217.152 83.2166C217.152 82.4311 217.304 81.7417 217.609 81.1484C217.914 80.5552 218.343 80.0928 218.897 79.7614C219.454 79.4299 220.107 79.2642 220.856 79.2642C221.359 79.2642 221.828 79.3454 222.263 79.5078C222.7 79.6669 223.081 79.9072 223.406 80.2287C223.734 80.5502 223.989 80.9545 224.172 81.4418C224.354 81.9257 224.445 82.4924 224.445 83.142V83.7237H217.997V82.4112H222.451C222.451 82.1063 222.385 81.8362 222.253 81.6009C222.12 81.3655 221.936 81.1816 221.701 81.049C221.469 80.9131 221.199 80.8452 220.89 80.8452C220.569 80.8452 220.284 80.9197 220.035 81.0689C219.79 81.2147 219.598 81.4119 219.459 81.6605C219.319 81.9058 219.248 82.1792 219.245 82.4808V83.7287C219.245 84.1065 219.314 84.433 219.454 84.7081C219.596 84.9832 219.797 85.1953 220.055 85.3445C220.314 85.4936 220.62 85.5682 220.975 85.5682C221.21 85.5682 221.426 85.535 221.621 85.4688C221.817 85.4025 221.984 85.303 222.123 85.1705C222.263 85.0379 222.369 84.8755 222.442 84.6832L224.4 84.8125C224.301 85.2831 224.097 85.6941 223.789 86.0455C223.484 86.3935 223.09 86.6652 222.606 86.8608C222.125 87.053 221.57 87.1491 220.94 87.1491ZM232.601 81.5412L230.662 81.6605C230.629 81.4948 230.558 81.3456 230.448 81.2131C230.339 81.0772 230.195 80.9695 230.016 80.8899C229.84 80.8071 229.63 80.7656 229.384 80.7656C229.056 80.7656 228.779 80.8352 228.554 80.9744C228.329 81.1103 228.216 81.2926 228.216 81.5213C228.216 81.7036 228.289 81.8577 228.435 81.9837C228.581 82.1096 228.831 82.2107 229.185 82.2869L230.568 82.5653C231.31 82.7178 231.863 82.9631 232.228 83.3011C232.593 83.6392 232.775 84.0833 232.775 84.6335C232.775 85.134 232.627 85.5732 232.332 85.951C232.041 86.3288 231.64 86.6238 231.129 86.8359C230.622 87.0447 230.037 87.1491 229.374 87.1491C228.363 87.1491 227.558 86.9387 226.958 86.5178C226.362 86.0935 226.012 85.5168 225.909 84.7876L227.992 84.6783C228.055 84.9865 228.208 85.2218 228.45 85.3842C228.692 85.5433 229.001 85.6229 229.379 85.6229C229.751 85.6229 230.049 85.5516 230.274 85.4091C230.503 85.2633 230.619 85.076 230.622 84.8473C230.619 84.6551 230.538 84.4976 230.379 84.375C230.22 84.2491 229.974 84.1529 229.643 84.0866L228.32 83.8232C227.575 83.674 227.019 83.4155 226.655 83.0476C226.294 82.6797 226.113 82.2107 226.113 81.6406C226.113 81.1501 226.246 80.7275 226.511 80.3729C226.779 80.0182 227.155 79.7448 227.639 79.5526C228.126 79.3603 228.697 79.2642 229.349 79.2642C230.314 79.2642 231.073 79.468 231.626 79.8757C232.183 80.2834 232.508 80.8385 232.601 81.5412ZM243.752 79.7464C243.712 79.3454 243.542 79.0339 243.24 78.8118C242.938 78.5897 242.529 78.4787 242.012 78.4787C241.661 78.4787 241.364 78.5284 241.122 78.6278C240.88 78.724 240.694 78.8582 240.565 79.0305C240.439 79.2029 240.376 79.3984 240.376 79.6172C240.37 79.7995 240.408 79.9586 240.491 80.0945C240.577 80.2304 240.694 80.348 240.844 80.4474C240.993 80.5436 241.165 80.6281 241.361 80.701C241.556 80.7706 241.765 80.8303 241.987 80.88L242.902 81.0987C243.346 81.1982 243.754 81.3307 244.125 81.4964C244.496 81.6622 244.818 81.866 245.089 82.108C245.361 82.3499 245.572 82.6349 245.721 82.9631C245.873 83.2912 245.951 83.6674 245.954 84.0916C245.951 84.7147 245.792 85.255 245.477 85.7124C245.166 86.1664 244.715 86.5194 244.125 86.7713C243.538 87.0199 242.831 87.1442 242.002 87.1442C241.18 87.1442 240.464 87.0182 239.854 86.7663C239.248 86.5144 238.774 86.1416 238.432 85.6477C238.094 85.1506 237.917 84.5357 237.9 83.8033H239.984C240.007 84.1446 240.104 84.4297 240.277 84.6584C240.452 84.8838 240.686 85.0545 240.978 85.1705C241.273 85.2831 241.606 85.3395 241.977 85.3395C242.342 85.3395 242.658 85.2865 242.927 85.1804C243.198 85.0743 243.409 84.9268 243.558 84.7379C243.707 84.549 243.782 84.3319 243.782 84.0866C243.782 83.858 243.714 83.6657 243.578 83.5099C243.445 83.3542 243.25 83.2216 242.991 83.1122C242.736 83.0028 242.423 82.9034 242.052 82.8139L240.943 82.5355C240.085 82.3267 239.407 82.0002 238.91 81.5561C238.412 81.112 238.166 80.5137 238.169 79.7614C238.166 79.1449 238.33 78.6063 238.661 78.1456C238.996 77.6849 239.455 77.3253 240.038 77.0668C240.622 76.8082 241.284 76.679 242.027 76.679C242.783 76.679 243.442 76.8082 244.006 77.0668C244.572 77.3253 245.013 77.6849 245.328 78.1456C245.643 78.6063 245.805 79.1399 245.815 79.7464H243.752ZM249.021 87.1293C248.692 87.1293 248.411 87.0133 248.175 86.7812C247.943 86.5459 247.827 86.2642 247.827 85.9361C247.827 85.6113 247.943 85.3329 248.175 85.1009C248.411 84.8688 248.692 84.7528 249.021 84.7528C249.339 84.7528 249.617 84.8688 249.856 85.1009C250.094 85.3329 250.214 85.6113 250.214 85.9361C250.214 86.1548 250.157 86.3554 250.045 86.5376C249.935 86.7166 249.791 86.8608 249.612 86.9702C249.433 87.0762 249.236 87.1293 249.021 87.1293ZM254.167 87H251.86L255.375 76.8182H258.15L261.659 87H259.353L256.802 79.1449H256.723L254.167 87ZM254.023 82.9979H259.472V84.6783H254.023V82.9979ZM264.503 87.1293C264.175 87.1293 263.893 87.0133 263.658 86.7812C263.426 86.5459 263.31 86.2642 263.31 85.9361C263.31 85.6113 263.426 85.3329 263.658 85.1009C263.893 84.8688 264.175 84.7528 264.503 84.7528C264.821 84.7528 265.1 84.8688 265.338 85.1009C265.577 85.3329 265.696 85.6113 265.696 85.9361C265.696 86.1548 265.64 86.3554 265.527 86.5376C265.418 86.7166 265.274 86.8608 265.095 86.9702C264.916 87.0762 264.719 87.1293 264.503 87.1293ZM276.879 80.3828H274.701C274.661 80.1011 274.58 79.8509 274.457 79.6321C274.335 79.41 274.177 79.2211 273.985 79.0653C273.793 78.9096 273.571 78.7902 273.319 78.7074C273.07 78.6245 272.8 78.5831 272.508 78.5831C271.982 78.5831 271.522 78.714 271.131 78.9759C270.74 79.2344 270.437 79.6122 270.222 80.1094C270.006 80.6032 269.898 81.2031 269.898 81.9091C269.898 82.6349 270.006 83.2448 270.222 83.7386C270.44 84.2325 270.745 84.6054 271.136 84.8572C271.527 85.1091 271.98 85.2351 272.494 85.2351C272.782 85.2351 273.049 85.197 273.294 85.1207C273.543 85.0445 273.763 84.9335 273.955 84.7876C274.147 84.6385 274.307 84.4579 274.433 84.2457C274.562 84.0336 274.651 83.7917 274.701 83.5199L276.879 83.5298C276.822 83.9972 276.681 84.4479 276.456 84.8821C276.234 85.313 275.934 85.6991 275.556 86.0405C275.182 86.3786 274.734 86.647 274.214 86.8459C273.697 87.0414 273.112 87.1392 272.459 87.1392C271.551 87.1392 270.739 86.9337 270.023 86.5227C269.31 86.1117 268.747 85.5168 268.332 84.7379C267.921 83.959 267.716 83.0161 267.716 81.9091C267.716 80.7988 267.925 79.8542 268.342 79.0753C268.76 78.2964 269.327 77.7031 270.043 77.2955C270.758 76.8845 271.564 76.679 272.459 76.679C273.049 76.679 273.596 76.7618 274.099 76.9276C274.607 77.0933 275.056 77.3352 275.447 77.6534C275.838 77.9683 276.156 78.3544 276.401 78.8118C276.65 79.2692 276.809 79.7929 276.879 80.3828ZM280.04 87.1293C279.712 87.1293 279.431 87.0133 279.195 86.7812C278.963 86.5459 278.847 86.2642 278.847 85.9361C278.847 85.6113 278.963 85.3329 279.195 85.1009C279.431 84.8688 279.712 84.7528 280.04 84.7528C280.359 84.7528 280.637 84.8688 280.876 85.1009C281.114 85.3329 281.234 85.6113 281.234 85.9361C281.234 86.1548 281.177 86.3554 281.065 86.5376C280.955 86.7166 280.811 86.8608 280.632 86.9702C280.453 87.0762 280.256 87.1293 280.04 87.1293Z" fill="white"/>
<path d="M9.45831 73C9.45831 73 31.6648 18.1516 34.9546 16.4241C38.2445 14.6966 82.6574 16.4241 82.6574 16.4241C89.356 8.59667 91.5632 4.84828 90.882 0.876532C90.882 0.876532 32.8985 -2.14661 26.3188 3.03592C19.7391 8.21844 0 58.3162 0 58.3162C1.30931 71.581 3.99301 72.8603 9.45831 73Z" fill="#FFCC00"/>
<path d="M27.9637 58.3162H61.2734C61.4264 65.9515 60.1507 69.4631 53.0488 73H18.5054C18.1804 68.3062 16.2057 66.3189 25.0851 58.3162H27.9637Z" fill="#FFCC00"/>
</svg>
