<svg width="102" height="105" viewBox="0 0 102 105" fill="none" xmlns="http://www.w3.org/2000/svg">
<path d="M48.0902 19.9189L48.2433 17.9248L47.5275 17.8698L46.9402 18.2826L48.0902 19.9189ZM73.2225 21.8486L73.0694 23.8428L74.003 23.9145L74.6559 23.2434L73.2225 21.8486ZM94.5344 1.9726C94.5193 0.868138 93.6117 -0.0149428 92.5072 0.000187646L74.5089 0.246753C73.4045 0.261883 72.5214 1.1695 72.5365 2.27396C72.5516 3.37843 73.4593 4.26151 74.5637 4.24638L90.5622 4.02721L90.7814 20.0257C90.7965 21.1302 91.7041 22.0133 92.8086 21.9981C93.9131 21.983 94.7961 21.0754 94.781 19.9709L94.5344 1.9726ZM26.4888 37.5444L49.2402 21.5552L46.9402 18.2826L24.1889 34.2718L26.4888 37.5444ZM47.9371 21.913L73.0694 23.8428L73.3756 19.8545L48.2433 17.9248L47.9371 21.913ZM74.6559 23.2434L93.9681 3.39471L91.1012 0.605291L71.789 20.4539L74.6559 23.2434Z" fill="#FFCC00"/>
<path d="M53.1164 19.0918C53.1164 22.2891 50.6291 24.881 47.5608 24.881C44.4926 24.881 42.0053 22.2891 42.0053 19.0918C42.0053 15.8946 44.4926 13.3027 47.5608 13.3027C50.6291 13.3027 53.1164 15.8946 53.1164 19.0918Z" fill="#FFCC00"/>
<path d="M78.7778 21.8127C78.7778 25.0099 76.2905 27.6019 73.2222 27.6019C70.154 27.6019 67.6667 25.0099 67.6667 21.8127C67.6667 18.6154 70.154 16.0235 73.2222 16.0235C76.2905 16.0235 78.7778 18.6154 78.7778 21.8127Z" fill="#FFCC00"/>
<path d="M63.6984 83.6C63.6984 86.1882 61.448 88.2864 58.672 88.2864C55.8959 88.2864 53.6455 86.1882 53.6455 83.6C53.6455 81.0117 55.8959 78.9135 58.672 78.9135C61.448 78.9135 63.6984 81.0117 63.6984 83.6Z" fill="#FFCC00"/>
<path d="M1 13.027H7.87831V96.281H97.2963V104H1V13.027Z" fill="#FFCC00"/>
<path d="M28.5132 81.6702L51 81.6702L68.9894 57.1351C72.4199 55.1871 77.8522 59.3405 76.1323 62.3729C74.4123 65.4054 67.6667 78.6378 67.6667 78.6378C66.4558 81.3085 66.6821 81.7687 67.4021 82.2216H88.8307C84.3333 42.5243 34.5979 41.9729 28.5132 81.6702Z" fill="#FFCC00"/>
<path d="M30.6296 65.1297C34.0228 58.6152 36.1765 56.7276 40.1534 54.3783C38.2643 51.3054 37.6864 49.554 37.2434 46.3837C29.7129 50.7563 27.2311 53.9023 23.7513 59.8918L30.6296 65.1297Z" fill="#FFCC00"/>
<path d="M43.8571 51.6216C43.8571 51.6216 56.4448 48.0598 56.5556 48.5891V39.4918C49.333 40.2985 45.9607 39.8184 40.1534 45.281C43.0635 47.7621 43.8571 51.6216 43.8571 51.6216Z" fill="#FFCC00"/>
<path d="M61.582 48.5891C66.0039 49.2042 70.1683 49.9966 74.8095 51.6216C75.7877 48.6043 77.1716 45.4168 78.7778 44.7297C75.6032 41.1459 68.753 40.0343 61.582 39.4918V48.5891Z" fill="#FFCC00"/>
<path d="M77.455 54.3783C81.2356 57.1736 83.3611 58.6586 86.9788 63.7513C91.1546 61.7545 92.1896 61.631 93.8571 61.5459C90.6358 54.7017 87.7799 51.5155 81.6878 45.8324C79.836 48.0378 78.2487 50.2432 77.455 54.3783Z" fill="#FFCC00"/>
<path d="M89.6243 67.0594C89.9706 70.6989 91.2795 75.2311 92.5344 82.4972C96.2541 82.3711 98.1896 82.3467 101 82.4972C100.063 73.0255 99.2214 68.6748 96.7672 63.7513C91.9773 63.8041 91.1351 64.9693 89.6437 67.0326L89.6243 67.0594Z" fill="#FFCC00"/>
<path d="M17.4021 82.4972H25.3386C25.7333 76.5878 25.6189 73.1645 28.7778 68.1621L22.164 63.7513C18.22 68.907 17.9015 73.7629 17.4021 82.4972Z" fill="#FFCC00"/>
<path d="M60.5238 74.5027L64.7566 78.0864C69.6902 65.1486 71.6349 61.5459 71.6349 60.9945C70.9938 60.3755 63.9033 67.9313 60.5238 74.5027Z" fill="#FFCC00"/>
<path d="M53.1164 19.0918C53.1164 22.2891 50.6291 24.881 47.5608 24.881C44.4926 24.881 42.0053 22.2891 42.0053 19.0918C42.0053 15.8946 44.4926 13.3027 47.5608 13.3027C50.6291 13.3027 53.1164 15.8946 53.1164 19.0918Z" stroke="#FFCC00"/>
<path d="M78.7778 21.8127C78.7778 25.0099 76.2905 27.6019 73.2222 27.6019C70.154 27.6019 67.6667 25.0099 67.6667 21.8127C67.6667 18.6154 70.154 16.0235 73.2222 16.0235C76.2905 16.0235 78.7778 18.6154 78.7778 21.8127Z" stroke="#FFCC00"/>
<path d="M63.6984 83.6C63.6984 86.1882 61.448 88.2864 58.672 88.2864C55.8959 88.2864 53.6455 86.1882 53.6455 83.6C53.6455 81.0117 55.8959 78.9135 58.672 78.9135C61.448 78.9135 63.6984 81.0117 63.6984 83.6Z" stroke="#FFCC00"/>
<path d="M1 13.027H7.87831V96.281H97.2963V104H1V13.027Z" stroke="#FFCC00"/>
<path d="M28.5132 81.6702L51 81.6702L68.9894 57.1351C72.4199 55.1871 77.8522 59.3405 76.1323 62.3729C74.4123 65.4054 67.6667 78.6378 67.6667 78.6378C66.4558 81.3085 66.6821 81.7687 67.4021 82.2216H88.8307C84.3333 42.5243 34.5979 41.9729 28.5132 81.6702Z" stroke="#FFCC00"/>
<path d="M30.6296 65.1297C34.0228 58.6152 36.1765 56.7276 40.1534 54.3783C38.2643 51.3054 37.6864 49.554 37.2434 46.3837C29.7129 50.7563 27.2311 53.9023 23.7513 59.8918L30.6296 65.1297Z" stroke="#FFCC00"/>
<path d="M43.8571 51.6216C43.8571 51.6216 56.4448 48.0598 56.5556 48.5891V39.4918C49.333 40.2985 45.9607 39.8184 40.1534 45.281C43.0635 47.7621 43.8571 51.6216 43.8571 51.6216Z" stroke="#FFCC00"/>
<path d="M61.582 48.5891C66.0039 49.2042 70.1683 49.9966 74.8095 51.6216C75.7877 48.6043 77.1716 45.4168 78.7778 44.7297C75.6032 41.1459 68.753 40.0343 61.582 39.4918V48.5891Z" stroke="#FFCC00"/>
<path d="M77.455 54.3783C81.2356 57.1736 83.3611 58.6586 86.9788 63.7513C91.1546 61.7545 92.1896 61.631 93.8571 61.5459C90.6358 54.7017 87.7799 51.5155 81.6878 45.8324C79.836 48.0378 78.2487 50.2432 77.455 54.3783Z" stroke="#FFCC00"/>
<path d="M89.6243 67.0594C89.9706 70.6989 91.2795 75.2311 92.5344 82.4972C96.2541 82.3711 98.1896 82.3467 101 82.4972C100.063 73.0255 99.2214 68.6748 96.7672 63.7513C91.9773 63.8041 91.1351 64.9693 89.6437 67.0326L89.6243 67.0594Z" stroke="#FFCC00"/>
<path d="M17.4021 82.4972H25.3386C25.7333 76.5878 25.6189 73.1645 28.7778 68.1621L22.164 63.7513C18.22 68.907 17.9015 73.7629 17.4021 82.4972Z" stroke="#FFCC00"/>
<path d="M60.5238 74.5027L64.7566 78.0864C69.6902 65.1486 71.6349 61.5459 71.6349 60.9945C70.9938 60.3755 63.9033 67.9313 60.5238 74.5027Z" stroke="#FFCC00"/>
</svg>
