<svg width="97" height="102" viewBox="0 0 97 102" fill="none" xmlns="http://www.w3.org/2000/svg">
<path d="M17.1485 26.0425H22.1527V48.6999L27.964 47.6778L29.9011 43.0781L26.6726 37.6267L32.4839 31.1532V30.5569V26.0425H37.1652L26.6726 14.2878L17.1485 26.0425Z" fill="#FFCC00"/>
<path d="M38.1337 13.6064H42.9764C42.8641 16.8485 42.7204 22.4965 42.7742 26.0425H53.469V13.6064H58.6346L47.9806 1L38.1337 13.6064Z" fill="#FFCC00"/>
<path d="M69.6115 37.6267L66.383 43.0781L68.1587 47.6778L74.1314 48.6999V26.0425H79.1355L69.6115 13.6064L59.4417 26.0425H64.2845L64.2903 31.1532L69.6115 37.6267Z" fill="#FFCC00"/>
<path d="M32.4839 31.1532L26.6726 37.6267L29.9011 43.0781L27.964 47.6778L22.1527 48.6999V52.4478C27.57 53.4613 31.6767 58.328 31.6767 64.1789C31.6767 69.9304 27.7082 74.7309 22.4274 75.8551C25.7725 76.0097 29.2342 77.0285 32.5902 79.1943C36.3832 74.43 41.8769 72.1186 47.431 72.1889C41.3303 71.8034 36.5195 67.3725 36.5195 60.4545C36.5195 59.6622 36.5826 58.8862 36.7035 58.1325C36.7069 58.1115 36.7103 58.0905 36.7138 58.0695C32.4839 47.6778 40.3304 39.5006 47.8192 39.5006C55.308 39.5006 64.6073 45.2928 59.5038 56.366C59.8826 57.6526 60.0874 59.0269 60.0874 60.4545C60.0874 67.6991 54.8115 72.2163 48.3034 72.2163L48.258 72.2162C53.8152 72.5127 59.1639 75.0734 62.8938 79.1943C64.9256 75.8389 70.1031 74.403 74.3726 74.4784C68.8365 73.7285 64.6073 69.6287 64.6073 63.6913C64.6073 57.8405 68.7141 52.9738 74.1313 51.9602L74.1314 48.6999L68.1587 47.6778L66.383 43.0781L69.6115 37.6267L64.2903 31.1532L63.8002 30.5569L58.1503 34.0492C55.39 33.9335 54.2955 32.9904 53.469 29.1089V26.0425H42.7742C42.7977 27.5894 42.8588 28.7363 42.9764 29.1089C42.4769 32.5101 41.5918 33.7757 38.1337 34.0492L32.4839 30.5569V31.1532Z" fill="#FFCC00"/>
<path fill-rule="evenodd" clip-rule="evenodd" d="M32.5806 79.2063L32.5741 79.2145C32.1046 79.8059 31.6613 80.4349 31.2472 81.1018C31.6632 80.4318 32.1087 79.8001 32.5806 79.2063ZM18.7412 76.0286C19.1722 76.0783 19.6103 76.1039 20.0542 76.1039C20.8675 76.1039 21.6612 76.0181 22.4274 75.8551C21.1785 75.7973 19.946 75.8601 18.7412 76.0286Z" fill="#FFCC00"/>
<path fill-rule="evenodd" clip-rule="evenodd" d="M22.4274 75.8551C21.6612 76.0181 20.8675 76.1039 20.0542 76.1039C19.6103 76.1039 19.1722 76.0783 18.7412 76.0286C19.946 75.8601 21.1785 75.7973 22.4274 75.8551Z" fill="#FFCC00"/>
<path d="M32.4839 30.5569V31.1532L26.6726 37.6267L29.9011 43.0781L27.964 47.6778L22.1527 48.6999M32.4839 30.5569L38.1337 34.0492C41.5918 33.7757 42.4769 32.5101 42.9764 29.1089C42.8588 28.7363 42.7977 27.5894 42.7742 26.0425M32.4839 30.5569V26.0425H37.1652L26.6726 14.2878L17.1485 26.0425H22.1527V48.6999M42.7742 26.0425C42.7204 22.4965 42.8641 16.8485 42.9764 13.6064H38.1337L47.9806 1L58.6346 13.6064H53.469V26.0425M42.7742 26.0425H53.469M53.469 26.0425V29.1089C54.2955 32.9904 55.39 33.9335 58.1503 34.0492L63.8002 30.5569L64.2903 31.1532M74.1314 48.6999L68.1587 47.6778L66.383 43.0781L69.6115 37.6267L64.2903 31.1532M74.1314 48.6999V26.0425H79.1355L69.6115 13.6064L59.4417 26.0425H64.2845L64.2903 31.1532M74.1314 48.6999L74.1313 51.9602M22.1527 52.4478C27.57 53.4613 31.6767 58.328 31.6767 64.1789C31.6767 69.9304 27.7082 74.7309 22.4274 75.8551M22.1527 52.4478C21.472 52.3204 20.7707 52.2539 20.0542 52.2539C13.6352 52.2539 8.43163 57.5929 8.43163 64.1789C8.43163 70.3094 12.9404 75.3594 18.7412 76.0286M22.1527 52.4478V48.6999M36.7138 58.0695C32.4839 47.6778 40.3304 39.5006 47.8192 39.5006C55.308 39.5006 64.6073 45.2928 59.5038 56.366M36.7138 58.0695C37.7213 51.9637 42.527 47.3371 48.3034 47.3371M36.7138 58.0695C36.7103 58.0905 36.7069 58.1115 36.7035 58.1325M59.5038 56.366C59.8826 57.6526 60.0874 59.0269 60.0874 60.4545M59.5038 56.366C59.402 56.0203 59.2877 55.681 59.1614 55.3486M76.2299 74.6023C82.6488 74.6023 87.8524 70.2773 87.8524 63.6913C87.8524 57.1053 82.6488 51.7663 76.2299 51.7663C75.5134 51.7663 74.812 51.8329 74.1313 51.9602M76.2299 74.6023C75.6034 74.5309 74.9831 74.4892 74.3726 74.4784M76.2299 74.6023C75.5977 74.6023 74.9774 74.5604 74.3726 74.4784M76.2299 74.6023C87.6785 75.907 101.174 87.1333 93.9858 101M60.0874 60.4545C60.0874 67.6991 54.8115 72.2163 48.3034 72.2163M60.0874 60.4545C60.0874 58.6434 59.7577 56.918 59.1614 55.3486M48.3034 72.2163C48.0125 72.2017 47.7216 72.1926 47.431 72.1889M48.3034 72.2163C48.2883 72.2163 48.2731 72.2162 48.258 72.2162M48.3034 72.2163L48.258 72.2162M48.3034 47.3371C53.1845 47.3371 57.3725 50.6406 59.1614 55.3486M48.3034 47.3371C42.5072 47.3371 37.6883 51.9955 36.7035 58.1325M93.9858 101H5.20235M93.9858 101C101.567 86.3745 86.1396 74.6863 74.3726 74.4784M93.9858 101L66.383 101M62.8938 79.1943C64.9256 75.8389 70.1031 74.403 74.3726 74.4784M62.8938 79.1943C59.1639 75.0734 53.8152 72.5127 48.258 72.2162M62.8938 79.1943C63.3748 79.7258 63.8289 80.2832 64.2531 80.8651M5.20235 101L27.964 101M5.20235 101C-4.90099 93.2917 5.14939 77.9297 18.7412 76.0286M32.5902 79.1943C29.2342 77.0285 25.7725 76.0097 22.4274 75.8551M32.5902 79.1943C36.3832 74.43 41.8769 72.1186 47.431 72.1889M32.5902 79.1943C32.587 79.1983 32.5838 79.2023 32.5806 79.2063M27.964 101H66.383M27.964 101C26.8519 92.4396 28.3157 85.8229 31.2472 81.1018M66.383 101C69.3975 93.1138 68.0198 86.0862 64.3117 80.9459C64.2922 80.9189 64.2726 80.892 64.2531 80.8651M47.431 72.1889C41.3303 71.8034 36.5195 67.3725 36.5195 60.4545C36.5195 59.6622 36.5826 58.8862 36.7035 58.1325M47.431 72.1889C47.7042 72.2062 47.9799 72.2153 48.258 72.2162M47.431 72.1889C47.7071 72.1924 47.9828 72.2015 48.258 72.2162M47.431 72.1889C41.8722 72.1185 36.374 74.4339 32.5806 79.2063M74.3726 74.4784C68.8365 73.7285 64.6073 69.6287 64.6073 63.6913C64.6073 57.8405 68.7141 52.9738 74.1313 51.9602M48.258 72.2162C54.5319 72.5509 60.5401 75.7715 64.2531 80.8651M22.4274 75.8551C21.6612 76.0181 20.8675 76.1039 20.0542 76.1039C19.6103 76.1039 19.1722 76.0783 18.7412 76.0286M22.4274 75.8551C21.1785 75.7973 19.946 75.8601 18.7412 76.0286M32.5806 79.2063L32.5741 79.2145M32.5806 79.2063C32.1087 79.8001 31.6632 80.4318 31.2472 81.1018M32.5806 79.2063C32.5785 79.2091 32.5763 79.2118 32.5741 79.2145M32.5741 79.2145C32.1046 79.8059 31.6613 80.4349 31.2472 81.1018" stroke="#444444" stroke-opacity="0.55"/>
</svg>
