<svg width="84" height="98" viewBox="0 0 84 98" fill="none" xmlns="http://www.w3.org/2000/svg">
<path fill-rule="evenodd" clip-rule="evenodd" d="M21.7888 33.6825L28.0377 25.8721H55.8106L62.7538 33.6825H83.1668C85.4096 34.4279 80.6569 40.4938 76.2236 47.5135L84 60.2054C83.97 61.4953 83.7138 61.8376 83.0279 61.8326H48.5896L42.8962 68.9921C42.2072 69.1899 42.0168 69.2299 41.5075 68.9921L35.5364 61.8326H2.20895C0.223725 62.1009 -0.269444 61.8439 0.125984 60.6936L8.18011 47.5135L0.125984 35.3097C0.0696852 34.1988 0.289916 33.7964 1.37576 33.6825H21.7888ZM29.1486 29.1264L22.7609 37.5877H29.1486L32.3425 29.1264H29.1486ZM29.1486 41.1675H22.7609L36.2307 57.9274L29.1486 41.1675ZM51.7835 41.1675H32.3425L42.2019 63.7852L51.7835 41.1675ZM36.2307 29.1264L32.3425 37.5877H51.7835L48.5896 29.1264H36.2307ZM55.1162 29.1264H51.7835L55.1162 37.5877H61.7817L55.1162 29.1264ZM47.8953 57.9274L55.1162 41.1675H61.7817L47.8953 57.9274Z" fill="#FFCC00"/>
<path d="M13 15.6683L18.5546 22.0142M65.6296 76.85L71.1841 83.1959M18.2732 77.1754L13.0641 83.9117M70.7639 15.3428L65.5548 22.0791M41.8835 2L42.1429 11.0853M41.8835 87.9147L42.1429 97" stroke="#FFCC00" stroke-width="2" stroke-linecap="round"/>
</svg>
