<svg width="1872" height="137" viewBox="0 0 1872 137" fill="none" xmlns="http://www.w3.org/2000/svg">
<path d="M447.01 63.5479V61.1224C467.829 61.1224 470.498 53.947 470.498 47.6955H472.305C472.305 58.6591 464.504 63.5479 447.01 63.5479Z" fill="white"/>
<path d="M447.01 51.0204V48.5948C467.829 48.5948 470.498 41.4188 470.498 35.1666H472.305C472.305 46.1309 464.504 51.0204 447.01 51.0204Z" fill="#444440"/>
<path d="M447.01 91.264V88.8385C467.829 88.8385 470.498 81.6618 470.498 75.4109H472.305C472.305 86.3739 464.504 91.264 447.01 91.264Z" fill="white"/>
<path d="M447.01 78.7348V76.3093C467.829 76.3093 470.498 69.1339 470.498 62.8817H472.305C472.305 73.8461 464.504 78.7348 447.01 78.7348Z" fill="#444440"/>
<path d="M541.342 63.0028C531.75 63.0028 525.191 61.6038 521.289 58.7262C517.985 56.289 516.445 52.7842 516.445 47.6955H518.251C518.251 54.386 521.049 60.5773 541.342 60.5773V63.0028Z" fill="white"/>
<path d="M541.342 90.7176C531.75 90.7176 525.191 89.3185 521.289 86.4417C517.985 84.0045 516.445 80.4983 516.445 75.4109H518.251C518.251 82.1007 521.049 88.292 541.342 88.292V90.7176Z" fill="white"/>
<path d="M541.342 78.189C531.75 78.189 525.191 76.7907 521.289 73.9138C517.985 71.4766 516.445 67.9705 516.445 62.8817H518.251C518.251 69.5729 521.049 75.7635 541.342 75.7635V78.189Z" fill="#444440"/>
<path d="M502.052 67.5109V59.3392L512.807 67.5109H502.052ZM505.674 108.364L496.236 97.0949L500.287 92.4239L505.674 108.364ZM496.071 78.6444L499.457 73.9597V83.1442L496.071 78.6444ZM496.52 62.8173L499.457 60.137V65.6058L496.52 62.8173ZM496.28 48.2386L499.457 44.2723V52.2063L496.28 48.2386ZM496.589 34.0763L499.457 31.2912V36.8614L496.589 34.0763ZM502.052 30.3578L512.807 38.5289H502.052V30.3578ZM518.374 67.7355L502.052 55.3352V42.0138H517.735C518.325 42.0138 518.84 41.4803 518.99 40.7147C519.017 40.5771 519.031 40.4383 519.033 40.3009C519.033 40.2807 519.033 40.2605 519.033 40.2404C519.025 39.6353 518.781 39.0649 518.374 38.7555L502.041 26.347C502.024 26.1579 501.985 25.9731 501.923 25.8005L495.544 8.0046C495.328 7.40129 494.873 7.01781 494.375 7.01781V12.7777L499.062 25.8518H494.375V29.3368H497.041L494.375 31.9253V36.2259L496.746 38.5289H494.375V42.0138H497.454L494.375 45.8596V50.6183L497.749 54.8332H494.375V58.3189H496.833L494.375 60.5616V65.0484L496.968 67.5109H494.375V70.9952H497.983L494.375 75.9887V81.2932L497.599 85.5773H494.375V89.0616H499.219L494.375 94.6475V99.5363L504.773 111.953H494.375V115.437H508.063L514.231 133.685C514.448 134.328 514.919 134.708 515.413 134.708C515.592 134.708 515.774 134.659 515.948 134.551C516.6 134.154 516.89 133.122 516.593 132.246L502.052 89.2122V70.9952H517.735C518.325 70.9952 518.84 70.4617 518.99 69.6961C519.14 68.9319 518.887 68.1252 518.374 67.7355Z" fill="white"/>
<path d="M492.16 34.0763L489.293 36.8614V31.2912L492.16 34.0763ZM492.469 48.2386L489.293 52.2063V44.2723L492.469 48.2386ZM491.965 62.7605L489.293 65.2011V60.2226L491.965 62.7605ZM492.42 78.6944L489.293 83.0216V74.5377L492.42 78.6944ZM492.291 97.0497L483.455 107.24L488.449 92.4623L492.291 97.0497ZM475.942 67.5109L486.697 59.3392V67.5109H475.942ZM475.942 38.5288L486.697 30.3578V38.5288H475.942ZM494.375 12.7777V7.01781C493.876 7.01781 493.422 7.40129 493.206 8.0046L486.826 25.8005C486.764 25.9731 486.725 26.1573 486.708 26.347L473.087 36.695L470.375 38.7555C469.862 39.1452 469.609 39.9491 469.759 40.7147C469.909 41.4803 470.424 42.0138 471.014 42.0138H486.697V55.3352L473.087 65.6757L470.375 67.7355C469.862 68.1252 469.609 68.9319 469.759 69.6961C469.909 70.4617 470.424 70.9952 471.014 70.9952H486.627L486.697 71.089V89.2122L478.655 113.012C478.655 113.014 478.654 113.016 478.653 113.018L472.156 132.246C471.86 133.122 472.149 134.154 472.802 134.551C473.454 134.951 474.223 134.561 474.519 133.685L480.686 115.437L494.375 115.437V111.953L483.352 111.953L494.248 99.387L494.375 99.5363V94.6475L494.279 94.7591L489.507 89.0616L494.375 89.0616V85.5773L491.062 85.5773L494.264 81.146L494.375 81.2932V75.9887L494.227 76.1928L490.316 70.9952L494.375 70.9952V67.5109L491.378 67.5109L494.228 64.9094L494.375 65.0484V60.5616L494.257 60.6684L491.782 58.3189L494.375 58.3189V54.8332L491 54.8332L494.375 50.6183V45.8596L491.295 42.0138L494.375 42.0138V38.5289L492.003 38.5288L494.375 36.2259V31.9253L491.708 29.3368L494.375 29.3368V25.8518L489.688 25.8518L494.375 12.7777Z" fill="#444440"/>
<path d="M515.663 49.639C515.663 50.8888 516.417 51.9016 517.348 51.9016C518.278 51.9016 519.033 50.8888 519.033 49.639V44.0301V40.3009V40.2404V40.0734V34.3886C519.033 33.1388 518.278 32.126 517.348 32.126C516.417 32.126 515.663 33.1388 515.663 34.3886V49.639Z" fill="white"/>
<path d="M515.663 78.4876C515.663 79.7374 516.417 80.7502 517.348 80.7502C518.278 80.7502 519.033 79.7374 519.033 78.4876V63.2385C519.033 61.9887 518.278 60.9752 517.348 60.9752C516.417 60.9752 515.663 61.9887 515.663 63.2385V78.4876Z" fill="white"/>
<path d="M473.087 36.695L473.087 34.3865C473.087 33.1367 472.333 32.1239 471.402 32.1239C470.471 32.1239 469.717 33.1367 469.717 34.3865V49.637C469.717 50.8867 470.471 51.8995 471.402 51.8995C472.333 51.8995 473.087 50.8867 473.087 49.637L473.087 36.695Z" fill="white"/>
<path d="M473.087 65.6757L473.087 63.2385C473.087 61.9887 472.333 60.9752 471.402 60.9752C470.471 60.9752 469.717 61.9887 469.717 63.2385V78.4876C469.717 79.7374 470.471 80.7502 471.402 80.7502C472.333 80.7502 473.087 79.7374 473.087 78.4876L473.087 65.6757Z" fill="white"/>
<path d="M521.289 46.1987C525.191 49.0755 531.75 50.4739 541.342 50.4739V48.0483C526.201 48.0483 520.799 44.6023 519.033 40.0734V40.2404C519.033 40.2605 519.033 40.2807 519.033 40.3009V44.0301C519.664 44.8341 520.415 45.5538 521.289 46.1987Z" fill="#444444"/>
<path d="M1422.01 61.5479V59.1224C1442.83 59.1224 1445.5 51.947 1445.5 45.6955H1447.3C1447.3 56.6591 1439.5 61.5479 1422.01 61.5479Z" fill="white"/>
<path d="M1422.01 49.0204V46.5948C1442.83 46.5948 1445.5 39.4188 1445.5 33.1666H1447.3C1447.3 44.1309 1439.5 49.0204 1422.01 49.0204Z" fill="#444440"/>
<path d="M1422.01 89.264V86.8385C1442.83 86.8385 1445.5 79.6618 1445.5 73.4109H1447.3C1447.3 84.3739 1439.5 89.264 1422.01 89.264Z" fill="white"/>
<path d="M1422.01 76.7348V74.3093C1442.83 74.3093 1445.5 67.1339 1445.5 60.8817H1447.3C1447.3 71.8461 1439.5 76.7348 1422.01 76.7348Z" fill="#444440"/>
<path d="M1516.34 61.0028C1506.75 61.0028 1500.19 59.6038 1496.29 56.7262C1492.98 54.289 1491.44 50.7842 1491.44 45.6955H1493.25C1493.25 52.386 1496.05 58.5773 1516.34 58.5773V61.0028Z" fill="white"/>
<path d="M1516.34 88.7176C1506.75 88.7176 1500.19 87.3185 1496.29 84.4417C1492.98 82.0045 1491.44 78.4983 1491.44 73.4109H1493.25C1493.25 80.1007 1496.05 86.292 1516.34 86.292V88.7176Z" fill="white"/>
<path d="M1516.34 76.189C1506.75 76.189 1500.19 74.7907 1496.29 71.9138C1492.98 69.4766 1491.44 65.9705 1491.44 60.8817H1493.25C1493.25 67.5729 1496.05 73.7635 1516.34 73.7635V76.189Z" fill="#444440"/>
<path d="M1477.05 65.5109V57.3392L1487.81 65.5109H1477.05ZM1480.67 106.364L1471.24 95.0949L1475.29 90.4239L1480.67 106.364ZM1471.07 76.6444L1474.46 71.9597V81.1442L1471.07 76.6444ZM1471.52 60.8173L1474.46 58.137V63.6058L1471.52 60.8173ZM1471.28 46.2386L1474.46 42.2723V50.2063L1471.28 46.2386ZM1471.59 32.0763L1474.46 29.2912V34.8614L1471.59 32.0763ZM1477.05 28.3578L1487.81 36.5289H1477.05V28.3578ZM1493.37 65.7355L1477.05 53.3352V40.0138H1492.74C1493.32 40.0138 1493.84 39.4803 1493.99 38.7147C1494.02 38.5771 1494.03 38.4383 1494.03 38.3009C1494.03 38.2807 1494.03 38.2605 1494.03 38.2404C1494.02 37.6353 1493.78 37.0649 1493.37 36.7555L1477.04 24.347C1477.02 24.1579 1476.98 23.9731 1476.92 23.8005L1470.54 6.0046C1470.33 5.40129 1469.87 5.01781 1469.37 5.01781V10.7777L1474.06 23.8518H1469.37V27.3368H1472.04L1469.37 29.9253V34.2259L1471.75 36.5289H1469.37V40.0138H1472.45L1469.37 43.8596V48.6183L1472.75 52.8332H1469.37V56.3189H1471.83L1469.37 58.5616V63.0484L1471.97 65.5109H1469.37V68.9952H1472.98L1469.37 73.9887V79.2932L1472.6 83.5773H1469.37V87.0616H1474.22L1469.37 92.6475V97.5363L1479.77 109.953H1469.37V113.437H1483.06L1489.23 131.685C1489.45 132.328 1489.92 132.708 1490.41 132.708C1490.59 132.708 1490.77 132.659 1490.95 132.551C1491.6 132.154 1491.89 131.122 1491.59 130.246L1477.05 87.2122V68.9952H1492.74C1493.32 68.9952 1493.84 68.4617 1493.99 67.6961C1494.14 66.9319 1493.89 66.1252 1493.37 65.7355Z" fill="white"/>
<path d="M1467.16 32.0763L1464.29 34.8614V29.2912L1467.16 32.0763ZM1467.47 46.2386L1464.29 50.2063V42.2723L1467.47 46.2386ZM1466.96 60.7605L1464.29 63.2011V58.2226L1466.96 60.7605ZM1467.42 76.6944L1464.29 81.0216V72.5377L1467.42 76.6944ZM1467.29 95.0497L1458.46 105.24L1463.45 90.4623L1467.29 95.0497ZM1450.94 65.5109L1461.7 57.3392V65.5109H1450.94ZM1450.94 36.5288L1461.7 28.3578V36.5288H1450.94ZM1469.37 10.7777V5.01781C1468.88 5.01781 1468.42 5.40129 1468.21 6.0046L1461.83 23.8005C1461.76 23.9731 1461.72 24.1573 1461.71 24.347L1448.09 34.695L1445.38 36.7555C1444.86 37.1452 1444.61 37.9491 1444.76 38.7147C1444.91 39.4803 1445.42 40.0138 1446.01 40.0138H1461.7V53.3352L1448.09 63.6757L1445.38 65.7355C1444.86 66.1252 1444.61 66.9319 1444.76 67.6961C1444.91 68.4617 1445.42 68.9952 1446.01 68.9952H1461.63L1461.7 69.089V87.2122L1453.65 111.012C1453.65 111.014 1453.65 111.016 1453.65 111.018L1447.16 130.246C1446.86 131.122 1447.15 132.154 1447.8 132.551C1448.45 132.951 1449.22 132.561 1449.52 131.685L1455.69 113.437L1469.37 113.437V109.953L1458.35 109.953L1469.25 97.387L1469.37 97.5363V92.6475L1469.28 92.7591L1464.51 87.0616L1469.37 87.0616V83.5773L1466.06 83.5773L1469.26 79.146L1469.37 79.2932V73.9887L1469.23 74.1928L1465.32 68.9952L1469.37 68.9952V65.5109L1466.38 65.5109L1469.23 62.9094L1469.37 63.0484V58.5616L1469.26 58.6684L1466.78 56.3189L1469.37 56.3189V52.8332L1466 52.8332L1469.37 48.6183V43.8596L1466.29 40.0138L1469.37 40.0138V36.5289L1467 36.5288L1469.37 34.2259V29.9253L1466.71 27.3368L1469.37 27.3368V23.8518L1464.69 23.8518L1469.37 10.7777Z" fill="#444440"/>
<path d="M1490.66 47.639C1490.66 48.8888 1491.42 49.9016 1492.35 49.9016C1493.28 49.9016 1494.03 48.8888 1494.03 47.639V42.0301V38.3009V38.2404V38.0734V32.3886C1494.03 31.1388 1493.28 30.126 1492.35 30.126C1491.42 30.126 1490.66 31.1388 1490.66 32.3886V47.639Z" fill="white"/>
<path d="M1490.66 76.4876C1490.66 77.7374 1491.42 78.7502 1492.35 78.7502C1493.28 78.7502 1494.03 77.7374 1494.03 76.4876V61.2385C1494.03 59.9887 1493.28 58.9752 1492.35 58.9752C1491.42 58.9752 1490.66 59.9887 1490.66 61.2385V76.4876Z" fill="white"/>
<path d="M1448.09 34.695L1448.09 32.3865C1448.09 31.1367 1447.33 30.1239 1446.4 30.1239C1445.47 30.1239 1444.72 31.1367 1444.72 32.3865V47.637C1444.72 48.8867 1445.47 49.8995 1446.4 49.8995C1447.33 49.8995 1448.09 48.8867 1448.09 47.637L1448.09 34.695Z" fill="white"/>
<path d="M1448.09 63.6757L1448.09 61.2385C1448.09 59.9887 1447.33 58.9752 1446.4 58.9752C1445.47 58.9752 1444.72 59.9887 1444.72 61.2385V76.4876C1444.72 77.7374 1445.47 78.7502 1446.4 78.7502C1447.33 78.7502 1448.09 77.7374 1448.09 76.4876L1448.09 63.6757Z" fill="white"/>
<path d="M1496.29 44.1987C1500.19 47.0755 1506.75 48.4739 1516.34 48.4739V46.0483C1501.2 46.0483 1495.8 42.6023 1494.03 38.0734V38.2404C1494.03 38.2605 1494.03 38.2807 1494.03 38.3009V42.0301C1494.66 42.8341 1495.41 43.5538 1496.29 44.1987Z" fill="#444444"/>
<path d="M447 47.6578H472.341V63.6109M472.341 35.0358V51.1642M470.498 75.4109L447 75.3568V91.3099M470.498 75.4109C470.498 81.6618 467.829 88.8385 447.01 88.8385V91.264C464.504 91.264 472.305 86.3739 472.305 75.4109H470.498ZM472.341 62.7345V78.8629M516.338 35.0358V50.6382M516.338 75.3568H541.294M516.338 62.7345V78.337M494.274 7V134.786H519.079M494.375 7.01781C494.873 7.01781 495.328 7.40129 495.544 8.0046L501.923 25.8005C501.985 25.9731 502.024 26.1579 502.041 26.347L518.374 38.7555C518.781 39.0649 519.025 39.6353 519.033 40.2404M494.375 7.01781V12.7777M494.375 7.01781C493.876 7.01781 493.422 7.40129 493.206 8.0046L486.826 25.8005C486.764 25.9731 486.725 26.1573 486.708 26.347L473.087 36.695M494.375 12.7777L499.062 25.8518H494.375M494.375 12.7777L489.688 25.8518L494.375 25.8518M494.375 25.8518V29.3368M494.375 29.3368H497.041L494.375 31.9253M494.375 29.3368L491.708 29.3368L494.375 31.9253M494.375 31.9253V36.2259M494.375 36.2259L496.746 38.5289H494.375M494.375 36.2259L492.003 38.5288L494.375 38.5289M494.375 38.5289V42.0138M494.375 42.0138H497.454L494.375 45.8596M494.375 42.0138L491.295 42.0138L494.375 45.8596M494.375 45.8596V50.6183M494.375 50.6183L497.749 54.8332H494.375M494.375 50.6183L491 54.8332L494.375 54.8332M494.375 54.8332V58.3189M494.375 58.3189H496.833L494.375 60.5616M494.375 58.3189L491.782 58.3189L494.257 60.6684L494.375 60.5616M494.375 60.5616V65.0484M494.375 65.0484L496.968 67.5109H494.375M494.375 65.0484L494.228 64.9094L491.378 67.5109L494.375 67.5109M494.375 67.5109V70.9952M494.375 70.9952H497.983L494.375 75.9887M494.375 70.9952L490.316 70.9952L494.227 76.1928L494.375 75.9887M494.375 75.9887V81.2932M494.375 81.2932L497.599 85.5773H494.375M494.375 81.2932L494.264 81.146L491.062 85.5773L494.375 85.5773M494.375 85.5773V89.0616M494.375 89.0616H499.219L494.375 94.6475M494.375 89.0616L489.507 89.0616L494.279 94.7591L494.375 94.6475M494.375 94.6475V99.5363M494.375 99.5363L504.773 111.953H494.375M494.375 99.5363L494.248 99.387L483.352 111.953L494.375 111.953M494.375 111.953V115.437M494.375 115.437H508.063L514.231 133.685C514.448 134.328 514.919 134.708 515.413 134.708C515.592 134.708 515.774 134.659 515.948 134.551C516.6 134.154 516.89 133.122 516.593 132.246L502.052 89.2122V70.9952H517.735C518.325 70.9952 518.84 70.4617 518.99 69.6961C519.14 68.9319 518.887 68.1252 518.374 67.7355L502.052 55.3352V42.0138H517.735C518.325 42.0138 518.84 41.4803 518.99 40.7147C519.017 40.5771 519.031 40.4383 519.033 40.3009M494.375 115.437L480.686 115.437L474.519 133.685C474.223 134.561 473.454 134.951 472.802 134.551C472.149 134.154 471.86 133.122 472.156 132.246L478.653 113.018C478.654 113.016 478.655 113.014 478.655 113.012L486.697 89.2122V71.089L486.627 70.9952H471.014C470.424 70.9952 469.909 70.4617 469.759 69.6961C469.609 68.9319 469.862 68.1252 470.375 67.7355L473.087 65.6757M494.404 7V134.786H469.599M473.087 36.695L470.375 38.7555C469.862 39.1452 469.609 39.9491 469.759 40.7147C469.909 41.4803 470.424 42.0138 471.014 42.0138H486.697V55.3352L473.087 65.6757M473.087 36.695L473.087 34.3865C473.087 33.1367 472.333 32.1239 471.402 32.1239C470.471 32.1239 469.717 33.1367 469.717 34.3865V49.637C469.717 50.8867 470.471 51.8995 471.402 51.8995C472.333 51.8995 473.087 50.8867 473.087 49.637L473.087 36.695ZM473.087 65.6757L473.087 63.2385C473.087 61.9887 472.333 60.9752 471.402 60.9752C470.471 60.9752 469.717 61.9887 469.717 63.2385V78.4876C469.717 79.7374 470.471 80.7502 471.402 80.7502C472.333 80.7502 473.087 79.7374 473.087 78.4876L473.087 65.6757ZM519.033 40.0734C520.799 44.6023 526.201 48.0483 541.342 48.0483V50.4739C531.75 50.4739 525.191 49.0755 521.289 46.1987C520.415 45.5538 519.664 44.8341 519.033 44.0301M519.033 40.0734V40.2404M519.033 40.0734V34.3886C519.033 33.1388 518.278 32.126 517.348 32.126C516.417 32.126 515.663 33.1388 515.663 34.3886V49.639C515.663 50.8888 516.417 51.9016 517.348 51.9016C518.278 51.9016 519.033 50.8888 519.033 49.639V44.0301M519.033 40.0734C518.431 38.5322 518.251 36.8655 518.251 35.1666H516.445C516.445 38.9093 517.277 41.7955 519.033 44.0301M519.033 40.2404C519.033 40.2605 519.033 40.2807 519.033 40.3009M519.033 40.2404V40.3009M519.033 40.3009V44.0301M1422 45.6578H1447.34V61.6109M1447.34 33.0358V49.1642M1445.5 73.4109L1422 73.3568V89.3099M1445.5 73.4109C1445.5 79.6618 1442.83 86.8385 1422.01 86.8385V89.264C1439.5 89.264 1447.3 84.3739 1447.3 73.4109H1445.5ZM1447.34 60.7345V76.8629M1491.34 33.0358V48.6382M1491.34 73.3568H1516.29M1491.34 60.7345V76.337M1469.27 5V132.786H1494.08M1469.37 5.01781C1469.87 5.01781 1470.33 5.40129 1470.54 6.0046L1476.92 23.8005C1476.98 23.9731 1477.02 24.1579 1477.04 24.347L1493.37 36.7555C1493.78 37.0649 1494.02 37.6353 1494.03 38.2404M1469.37 5.01781V10.7777M1469.37 5.01781C1468.88 5.01781 1468.42 5.40129 1468.21 6.0046L1461.83 23.8005C1461.76 23.9731 1461.72 24.1573 1461.71 24.347L1448.09 34.695M1469.37 10.7777L1474.06 23.8518H1469.37M1469.37 10.7777L1464.69 23.8518L1469.37 23.8518M1469.37 23.8518V27.3368M1469.37 27.3368H1472.04L1469.37 29.9253M1469.37 27.3368L1466.71 27.3368L1469.37 29.9253M1469.37 29.9253V34.2259M1469.37 34.2259L1471.75 36.5289H1469.37M1469.37 34.2259L1467 36.5288L1469.37 36.5289M1469.37 36.5289V40.0138M1469.37 40.0138H1472.45L1469.37 43.8596M1469.37 40.0138L1466.29 40.0138L1469.37 43.8596M1469.37 43.8596V48.6183M1469.37 48.6183L1472.75 52.8332H1469.37M1469.37 48.6183L1466 52.8332L1469.37 52.8332M1469.37 52.8332V56.3189M1469.37 56.3189H1471.83L1469.37 58.5616M1469.37 56.3189L1466.78 56.3189L1469.26 58.6684L1469.37 58.5616M1469.37 58.5616V63.0484M1469.37 63.0484L1471.97 65.5109H1469.37M1469.37 63.0484L1469.23 62.9094L1466.38 65.5109L1469.37 65.5109M1469.37 65.5109V68.9952M1469.37 68.9952H1472.98L1469.37 73.9887M1469.37 68.9952L1465.32 68.9952L1469.23 74.1928L1469.37 73.9887M1469.37 73.9887V79.2932M1469.37 79.2932L1472.6 83.5773H1469.37M1469.37 79.2932L1469.26 79.146L1466.06 83.5773L1469.37 83.5773M1469.37 83.5773V87.0616M1469.37 87.0616H1474.22L1469.37 92.6475M1469.37 87.0616L1464.51 87.0616L1469.28 92.7591L1469.37 92.6475M1469.37 92.6475V97.5363M1469.37 97.5363L1479.77 109.953H1469.37M1469.37 97.5363L1469.25 97.387L1458.35 109.953L1469.37 109.953M1469.37 109.953V113.437M1469.37 113.437H1483.06L1489.23 131.685C1489.45 132.328 1489.92 132.708 1490.41 132.708C1490.59 132.708 1490.77 132.659 1490.95 132.551C1491.6 132.154 1491.89 131.122 1491.59 130.246L1477.05 87.2122V68.9952H1492.74C1493.32 68.9952 1493.84 68.4617 1493.99 67.6961C1494.14 66.9319 1493.89 66.1252 1493.37 65.7355L1477.05 53.3352V40.0138H1492.74C1493.32 40.0138 1493.84 39.4803 1493.99 38.7147C1494.02 38.5771 1494.03 38.4383 1494.03 38.3009M1469.37 113.437L1455.69 113.437L1449.52 131.685C1449.22 132.561 1448.45 132.951 1447.8 132.551C1447.15 132.154 1446.86 131.122 1447.16 130.246L1453.65 111.018C1453.65 111.016 1453.65 111.014 1453.65 111.012L1461.7 87.2122V69.089L1461.63 68.9952H1446.01C1445.42 68.9952 1444.91 68.4617 1444.76 67.6961C1444.61 66.9319 1444.86 66.1252 1445.38 65.7355L1448.09 63.6757M1469.4 5V132.786H1444.6M1448.09 34.695L1445.38 36.7555C1444.86 37.1452 1444.61 37.9491 1444.76 38.7147C1444.91 39.4803 1445.42 40.0138 1446.01 40.0138H1461.7V53.3352L1448.09 63.6757M1448.09 34.695L1448.09 32.3865C1448.09 31.1367 1447.33 30.1239 1446.4 30.1239C1445.47 30.1239 1444.72 31.1367 1444.72 32.3865V47.637C1444.72 48.8867 1445.47 49.8995 1446.4 49.8995C1447.33 49.8995 1448.09 48.8867 1448.09 47.637L1448.09 34.695ZM1448.09 63.6757L1448.09 61.2385C1448.09 59.9887 1447.33 58.9752 1446.4 58.9752C1445.47 58.9752 1444.72 59.9887 1444.72 61.2385V76.4876C1444.72 77.7374 1445.47 78.7502 1446.4 78.7502C1447.33 78.7502 1448.09 77.7374 1448.09 76.4876L1448.09 63.6757ZM1494.03 38.0734C1495.8 42.6023 1501.2 46.0483 1516.34 46.0483V48.4739C1506.75 48.4739 1500.19 47.0755 1496.29 44.1987C1495.41 43.5538 1494.66 42.8341 1494.03 42.0301M1494.03 38.0734V38.2404M1494.03 38.0734V32.3886C1494.03 31.1388 1493.28 30.126 1492.35 30.126C1491.42 30.126 1490.66 31.1388 1490.66 32.3886V47.639C1490.66 48.8888 1491.42 49.9016 1492.35 49.9016C1493.28 49.9016 1494.03 48.8888 1494.03 47.639V42.0301M1494.03 38.0734C1493.43 36.5322 1493.25 34.8655 1493.25 33.1666H1491.44C1491.44 36.9093 1492.28 39.7955 1494.03 42.0301M1494.03 38.2404C1494.03 38.2605 1494.03 38.2807 1494.03 38.3009M1494.03 38.2404V38.3009M1494.03 38.3009V42.0301M20.5 50.9999C26.4091 52.4294 37.2049 57.8737 51.5334 65.3313M51.5334 65.3313C62.0782 70.8196 74.5363 77.3983 88.3682 84.2697M51.5334 65.3313C81.8862 50.1719 109.838 38.6969 136.4 30.6174M51.5334 65.3313C42.4146 69.8856 33.0791 74.7724 23.4993 79.9995M88.3682 84.2697C154.345 117.046 251.578 156.481 321.5 116C332.648 109.546 342.318 103.619 350.756 98.1916M88.3682 84.2697C152.502 85.5378 250.226 100.748 350.756 98.1916M88.3682 84.2697C39.0483 83.2945 9.59251 90.5644 14 120.5M350.756 98.1916C368.241 86.9448 380.438 77.8393 389.534 70.6212M350.756 98.1916C383.392 97.3617 416.325 94.6593 448.499 88.9996M389.534 70.6212C396.395 65.177 401.491 60.8066 405.762 57.401M389.534 70.6212C403.831 69.2124 415.996 67.4252 425.497 65.7746M389.534 70.6212C331.672 76.3229 238.897 75.8264 146.499 34.9995C143.051 33.476 139.686 32.016 136.4 30.6174M405.762 57.401C418.713 47.0729 424.069 45.6182 448 49.9999M405.762 57.401C412.231 60.0754 418.806 62.8676 425.497 65.7746M405.762 57.401C304.381 15.4933 228.794 2.51391 136.4 30.6174M448.499 62.5C448.499 62.5 440.178 63.2242 425.497 65.7746M425.497 65.7746C433.013 69.0397 440.675 72.4495 448.499 75.9995M136.4 30.6174C-3.72871 -29.0319 2.00051 22.9997 2.00051 22.9997M1516 48.9995C1624.36 22.0844 1692.18 23.7669 1762.98 48.0292M1762.98 48.0292C1776.51 52.6624 1790.14 58.119 1804.18 64.3571M1762.98 48.0292C1761.67 48.3472 1760.34 48.6707 1759 48.9995C1616 84 1594.83 56.9995 1516 60.9995M1762.98 48.0292C1812.89 35.9442 1840.84 31.6808 1855.69 32.0056M1804.18 64.3571C1822.97 72.7052 1842.5 82.4528 1863.5 93.4995M1804.18 64.3571C1684.32 127.361 1633.64 59.779 1516 75.9995M1804.18 64.3571C1820.03 56.0234 1837.1 45.405 1855.69 32.0056M1855.69 32.0056C1882.03 32.5818 1867.15 47.5969 1860.5 58.9995M1855.69 32.0056C1857.28 30.8575 1858.88 29.6889 1860.5 28.4995M1516 88.9996C1624.13 143.225 1706.12 136.694 1860.5 111M447.01 63.5479V61.1224C467.829 61.1224 470.498 53.947 470.498 47.6955H472.305C472.305 58.6591 464.504 63.5479 447.01 63.5479ZM447.01 51.0204V48.5948C467.829 48.5948 470.498 41.4188 470.498 35.1666H472.305C472.305 46.1309 464.504 51.0204 447.01 51.0204ZM447.01 78.7348V76.3093C467.829 76.3093 470.498 69.1339 470.498 62.8817H472.305C472.305 73.8461 464.504 78.7348 447.01 78.7348ZM541.342 63.0028C531.75 63.0028 525.191 61.6038 521.289 58.7262C517.985 56.289 516.445 52.7842 516.445 47.6955H518.251C518.251 54.386 521.049 60.5773 541.342 60.5773V63.0028ZM541.342 90.7176C531.75 90.7176 525.191 89.3185 521.289 86.4417C517.985 84.0045 516.445 80.4983 516.445 75.4109H518.251C518.251 82.1007 521.049 88.292 541.342 88.292V90.7176ZM541.342 78.189C531.75 78.189 525.191 76.7907 521.289 73.9138C517.985 71.4766 516.445 67.9705 516.445 62.8817H518.251C518.251 69.5729 521.049 75.7635 541.342 75.7635V78.189ZM502.052 67.5109V59.3392L512.807 67.5109H502.052ZM505.674 108.364L496.236 97.0949L500.287 92.4239L505.674 108.364ZM496.071 78.6444L499.457 73.9597V83.1442L496.071 78.6444ZM496.52 62.8173L499.457 60.137V65.6058L496.52 62.8173ZM496.28 48.2386L499.457 44.2723V52.2063L496.28 48.2386ZM496.589 34.0763L499.457 31.2912V36.8614L496.589 34.0763ZM502.052 30.3578L512.807 38.5289H502.052V30.3578ZM492.16 34.0763L489.293 36.8614V31.2912L492.16 34.0763ZM492.469 48.2386L489.293 52.2063V44.2723L492.469 48.2386ZM491.965 62.7605L489.293 65.2011V60.2226L491.965 62.7605ZM492.42 78.6944L489.293 83.0216V74.5377L492.42 78.6944ZM492.291 97.0497L483.455 107.24L488.449 92.4623L492.291 97.0497ZM475.942 67.5109L486.697 59.3392V67.5109H475.942ZM475.942 38.5288L486.697 30.3578V38.5288H475.942ZM515.663 78.4876C515.663 79.7374 516.417 80.7502 517.348 80.7502C518.278 80.7502 519.033 79.7374 519.033 78.4876V63.2385C519.033 61.9887 518.278 60.9752 517.348 60.9752C516.417 60.9752 515.663 61.9887 515.663 63.2385V78.4876ZM1422.01 61.5479V59.1224C1442.83 59.1224 1445.5 51.947 1445.5 45.6955H1447.3C1447.3 56.6591 1439.5 61.5479 1422.01 61.5479ZM1422.01 49.0204V46.5948C1442.83 46.5948 1445.5 39.4188 1445.5 33.1666H1447.3C1447.3 44.1309 1439.5 49.0204 1422.01 49.0204ZM1422.01 76.7348V74.3093C1442.83 74.3093 1445.5 67.1339 1445.5 60.8817H1447.3C1447.3 71.8461 1439.5 76.7348 1422.01 76.7348ZM1516.34 61.0028C1506.75 61.0028 1500.19 59.6038 1496.29 56.7262C1492.98 54.289 1491.44 50.7842 1491.44 45.6955H1493.25C1493.25 52.386 1496.05 58.5773 1516.34 58.5773V61.0028ZM1516.34 88.7176C1506.75 88.7176 1500.19 87.3185 1496.29 84.4417C1492.98 82.0045 1491.44 78.4983 1491.44 73.4109H1493.25C1493.25 80.1007 1496.05 86.292 1516.34 86.292V88.7176ZM1516.34 76.189C1506.75 76.189 1500.19 74.7907 1496.29 71.9138C1492.98 69.4766 1491.44 65.9705 1491.44 60.8817H1493.25C1493.25 67.5729 1496.05 73.7635 1516.34 73.7635V76.189ZM1477.05 65.5109V57.3392L1487.81 65.5109H1477.05ZM1480.67 106.364L1471.24 95.0949L1475.29 90.4239L1480.67 106.364ZM1471.07 76.6444L1474.46 71.9597V81.1442L1471.07 76.6444ZM1471.52 60.8173L1474.46 58.137V63.6058L1471.52 60.8173ZM1471.28 46.2386L1474.46 42.2723V50.2063L1471.28 46.2386ZM1471.59 32.0763L1474.46 29.2912V34.8614L1471.59 32.0763ZM1477.05 28.3578L1487.81 36.5289H1477.05V28.3578ZM1467.16 32.0763L1464.29 34.8614V29.2912L1467.16 32.0763ZM1467.47 46.2386L1464.29 50.2063V42.2723L1467.47 46.2386ZM1466.96 60.7605L1464.29 63.2011V58.2226L1466.96 60.7605ZM1467.42 76.6944L1464.29 81.0216V72.5377L1467.42 76.6944ZM1467.29 95.0497L1458.46 105.24L1463.45 90.4623L1467.29 95.0497ZM1450.94 65.5109L1461.7 57.3392V65.5109H1450.94ZM1450.94 36.5288L1461.7 28.3578V36.5288H1450.94ZM1490.66 76.4876C1490.66 77.7374 1491.42 78.7502 1492.35 78.7502C1493.28 78.7502 1494.03 77.7374 1494.03 76.4876V61.2385C1494.03 59.9887 1493.28 58.9752 1492.35 58.9752C1491.42 58.9752 1490.66 59.9887 1490.66 61.2385V76.4876Z" stroke="black" stroke-opacity="0.2" stroke-width="2.51"/>
</svg>
